<?xml version="1.0" encoding="utf-8"?>
<!-- Generator: Adobe Illustrator 21.0.0, SVG Export Plug-In . SVG Version: 6.00 Build 0)  -->
<svg version="1.1" id="Layer_1" xmlns="http://www.w3.org/2000/svg" xmlns:xlink="http://www.w3.org/1999/xlink" x="0px" y="0px"
	 viewBox="0 0 395 266.7" style="enable-background:new 0 0 395 266.7;" xml:space="preserve">
<style type="text/css">
	.st0{fill:#FFFFFF;}
	.st1{fill:#2C98D4;}
</style>
<g>
	<g>
		<g>
			<path class="st0" d="M258.1,232c1.4-1,2.7-2.1,4-3.2c31.2-20.3,51.9-55.5,52-95.5c-0.1-40-20.8-75.2-52-95.5
				c-1.3-1.1-2.7-2.1-4-3.1c53.5,15.1,100.7,40.4,136.9,84c-0.9-3.1-2-6.2-3.4-9.1c-18.9-38.5-49.5-65.3-86.8-84.7
				C270.9,7.3,234.9-0.4,197.5,0c-37.4-0.4-73.4,7.3-107.3,25C52.8,44.4,22.3,71.1,3.4,109.6c-1.4,2.9-2.5,5.9-3.4,9.1
				c36.2-43.6,83.4-68.9,136.9-84c-1.4,1-2.7,2.1-4,3.1c-31.2,20.3-51.9,55.5-52,95.5c0.1,40,20.8,75.2,52,95.5
				c1.3,1.1,2.7,2.1,4,3.2C83.4,216.9,36.2,191.6,0,148c0.9,3.1,2,6.2,3.4,9.1c18.9,38.5,49.5,65.3,86.8,84.7
				c33.9,17.6,69.9,25.4,107.3,24.9c37.4,0.4,73.4-7.3,107.3-24.9c37.4-19.4,67.9-46.1,86.8-84.7c1.4-2.9,2.5-5.9,3.4-9.1
				C358.8,191.6,311.6,216.9,258.1,232z M197.5,231.2c-47.2,0.8-90.4-35.4-97.1-83.9c-0.7-4.7-1-9.4-1.1-14c0-4.6,0.4-9.3,1.1-14
				c6.7-48.5,49.9-84.7,97.1-83.9c47.2-0.8,90.4,35.4,97.1,83.9c0.6,4.7,1,9.4,1.1,14c0,4.6-0.4,9.3-1.1,14
				C287.9,195.8,244.8,232,197.5,231.2z"/>
		</g>
	</g>
	<g>
		<ellipse class="st1" cx="197.5" cy="133.4" rx="45.4" ry="45.4"/>
	</g>
	<g>
		<polygon class="st0" points="195.2,131.1 141.4,99.3 175,72 		"/>
	</g>
</g>
</svg>
